<?xml version="1.0" standalone="no"?>
<!DOCTYPE svg PUBLIC "-//W3C//DTD SVG 20010904//EN"
 "http://www.w3.org/TR/2001/REC-SVG-20010904/DTD/svg10.dtd">
<svg version="1.0" xmlns="http://www.w3.org/2000/svg"
 width="1046.000000pt" height="1280.000000pt" viewBox="0 0 1046.000000 1280.000000"
 preserveAspectRatio="xMidYMid meet">
<g transform="translate(0.000000,1280.000000) scale(0.100000,-0.100000)"
fill="#000000" stroke="none">
<path d="M6190 12755 c-395 -133 -629 -259 -985 -529 -88 -67 -182 -136 -210
-153 -107 -67 -187 -84 -275 -58 -72 21 -317 71 -450 93 -80 13 -167 17 -365
16 -267 0 -376 -10 -589 -54 -274 -56 -310 -52 -486 59 -275 174 -541 312
-800 414 -160 63 -356 128 -433 142 -45 9 -43 20 -22 -191 59 -566 188 -1010
377 -1302 47 -73 49 -46 -16 -256 -117 -379 -137 -759 -57 -1073 12 -45 21
-86 21 -92 0 -8 -100 -11 -332 -11 -353 0 -646 -11 -948 -36 -200 -16 -500
-49 -571 -63 -73 -14 -3 -12 117 3 452 60 1198 98 1578 81 l168 -7 19 -47 c11
-25 47 -101 81 -169 34 -67 59 -124 56 -127 -3 -3 -92 -16 -199 -30 -384 -50
-769 -121 -1109 -205 -208 -52 -493 -135 -575 -169 -81 -33 -27 -24 86 14 465
158 908 250 1770 370 44 6 52 0 126 -95 33 -41 85 -103 116 -136 31 -34 57
-66 57 -71 0 -5 -53 -29 -117 -53 -263 -97 -607 -257 -843 -393 -134 -77 -385
-240 -396 -258 -5 -8 4 -6 21 5 305 200 426 272 644 380 292 147 681 303 724
292 33 -8 194 -179 253 -268 107 -160 139 -293 131 -532 -9 -259 -45 -449
-192 -1000 -141 -533 -193 -782 -232 -1128 -24 -215 -24 -715 0 -920 69 -580
212 -1053 538 -1780 155 -346 185 -418 238 -571 60 -174 96 -359 121 -627 28
-296 42 -1344 18 -1368 -7 -7 -38 -12 -69 -12 -72 0 -215 -25 -286 -50 -80
-28 -117 -61 -154 -135 -37 -75 -49 -181 -30 -253 35 -128 224 -219 535 -257
829 -101 2109 -165 2746 -136 146 7 364 16 485 22 606 26 1138 73 1760 155
332 43 573 83 629 104 464 174 890 1224 1165 2875 142 849 161 1196 90 1625
-99 598 -383 1164 -878 1750 -58 69 -272 294 -476 500 -463 468 -596 623 -776
898 -147 225 -281 543 -325 772 -27 141 -25 443 5 605 43 239 143 483 268 658
269 373 796 627 1252 604 280 -15 520 -125 592 -274 64 -133 -14 -327 -177
-439 -134 -91 -275 -110 -460 -61 -131 34 -199 42 -252 28 -140 -38 -207 -228
-131 -379 41 -83 119 -152 233 -207 131 -62 216 -79 385 -72 108 4 154 10 226
31 186 56 380 167 522 300 183 170 265 335 322 642 16 87 14 152 -10 273 -48
250 -123 390 -293 548 -182 169 -331 243 -586 290 -137 25 -540 25 -695 0
-705 -116 -1256 -459 -1618 -1007 -84 -128 -143 -249 -193 -397 -21 -62 -42
-114 -48 -116 -6 -2 -69 0 -141 5 -71 5 -317 12 -545 16 -360 6 -415 9 -414
22 1 8 11 56 22 105 76 333 46 663 -92 1008 l-43 108 39 57 c219 314 335 548
407 822 60 229 66 280 65 580 0 151 -5 287 -10 301 l-9 26 -95 -32z m639
-3025 c95 -6 168 -15 171 -21 4 -6 1 -36 -6 -67 -21 -87 -54 -321 -54 -380 0
-63 -14 -95 -38 -88 -110 35 -707 145 -982 181 -162 21 -170 23 -170 39 0 7
22 60 48 117 27 57 59 132 71 166 23 61 24 62 65 67 65 7 714 -3 895 -14z
m-829 -400 c258 -38 547 -90 760 -138 l165 -37 2 -60 c28 -713 158 -1105 576
-1735 277 -417 565 -757 1142 -1350 266 -273 377 -415 514 -653 225 -391 324
-819 307 -1327 -29 -840 -222 -1723 -526 -2407 -137 -310 -260 -484 -385 -543
-97 -47 -218 -27 -286 47 -99 106 -101 233 -15 952 78 653 89 809 82 1126 -3
143 -10 298 -16 345 -60 489 -193 900 -470 1448 -321 637 -543 943 -1065 1467
-297 299 -496 482 -803 737 -469 391 -557 493 -650 758 -54 155 -76 295 -77
480 0 146 3 172 23 231 33 96 171 312 209 326 28 11 398 -146 640 -272 175
-92 332 -185 486 -287 64 -43 117 -74 117 -69 0 12 -280 193 -430 278 -220
124 -497 255 -703 333 -64 25 -87 38 -85 49 2 9 50 87 108 173 102 153 106
158 140 158 19 0 127 -13 240 -30z"/>
</g>
</svg>
