<svg width="494" height="494" viewBox="0 0 494 494" fill="none" xmlns="http://www.w3.org/2000/svg">
<path d="M332.081 117.13C326.589 107.617 323.843 102.861 319.827 102.354C319.149 102.268 318.462 102.268 317.784 102.354C313.768 102.862 311.023 107.619 305.532 117.133L245.942 220.395L181.802 109.328C180.117 106.411 179.275 104.952 177.899 104.441C177.659 104.351 177.411 104.285 177.158 104.242C175.712 103.997 174.253 104.839 171.335 106.523L161.477 112.212C158.558 113.897 157.098 114.739 156.586 116.115C156.497 116.355 156.43 116.603 156.388 116.856C156.143 118.303 156.986 119.763 158.671 122.682L222.809 233.745H94.53C91.1602 233.745 89.4752 233.745 88.3444 234.68C88.147 234.844 87.9653 235.025 87.8019 235.223C86.8665 236.354 86.8665 238.039 86.8665 241.408V252.781C86.8665 256.151 86.8665 257.836 87.8019 258.966C87.9653 259.164 88.147 259.345 88.3444 259.509C89.4752 260.444 91.1602 260.444 94.53 260.444H222.809L158.667 371.61C156.983 374.529 156.141 375.988 156.387 377.435C156.429 377.688 156.496 377.936 156.585 378.176C157.097 379.552 158.556 380.394 161.475 382.078L171.335 387.768C174.253 389.452 175.712 390.294 177.158 390.049C177.411 390.006 177.659 389.94 177.899 389.851C179.275 389.339 180.117 387.88 181.802 384.963L245.942 273.896L305.521 377.055C311.016 386.57 313.763 391.327 317.78 391.833C318.458 391.918 319.145 391.918 319.824 391.832C323.84 391.323 326.584 386.564 332.072 377.045L401.534 256.569C404.053 252.201 405.312 250.017 405.461 247.633C405.488 247.207 405.487 246.78 405.461 246.354C405.31 243.97 404.05 241.786 401.529 237.42L332.081 117.13ZM261.432 247.095L315.485 153.294C316.858 150.911 317.544 149.72 318.549 149.592C318.719 149.571 318.891 149.571 319.06 149.592C320.065 149.72 320.752 150.911 322.125 153.294L376.178 247.095L318.805 346.657L261.432 247.095Z" fill="black"/>
</svg>
